<svg id="Layer_1" data-name="Layer 1" xmlns="http://www.w3.org/2000/svg" viewBox="0 0 110 110"><defs><style>.cls-1{fill:none;stroke:#333;stroke-miterlimit:10;stroke-width:4px;}</style></defs><title>cal-gray</title><polyline class="cls-1" points="87.79 7.9 105 7.9 105 107 5.9 107 5.9 7.9 23.73 7.9"/><line class="cls-1" x1="35.73" y1="7.9" x2="75.79" y2="7.9"/><line class="cls-1" x1="16.56" y1="57.45" x2="30.99" y2="57.45"/><line class="cls-1" x1="16.56" y1="71.88" x2="30.99" y2="71.88"/><line class="cls-1" x1="16.56" y1="86.3" x2="30.99" y2="86.3"/><line class="cls-1" x1="48.55" y1="57.45" x2="62.98" y2="57.45"/><line class="cls-1" x1="48.55" y1="40.51" x2="62.98" y2="40.51"/><line class="cls-1" x1="48.55" y1="71.88" x2="62.98" y2="71.88"/><line class="cls-1" x1="48.55" y1="86.3" x2="62.98" y2="86.3"/><line class="cls-1" x1="80.54" y1="57.45" x2="94.96" y2="57.45"/><line class="cls-1" x1="29.73" y1="1" x2="29.73" y2="15.43"/><line class="cls-1" x1="81.79" y1="1" x2="81.79" y2="15.43"/><line class="cls-1" x1="80.54" y1="71.88" x2="94.96" y2="71.88"/><line class="cls-1" x1="80.54" y1="40.51" x2="94.96" y2="40.51"/><line class="cls-1" x1="5.9" y1="27.34" x2="105" y2="27.34"/></svg>