<svg id="Layer_1" data-name="Layer 1" xmlns="http://www.w3.org/2000/svg" viewBox="0 0 414 66"><defs><style>.cls-1{fill:#666;}</style></defs><title>embg-mono-color-gray</title><path class="cls-1" d="M.59,52.68a52,52,0,0,1,104,0Z"/><path class="cls-1" d="M139.79,17.63c10,0,16.46,7.67,16.46,18.18v1.73H130.46c.55,5.05,4.35,9.2,10.65,9.2a14.15,14.15,0,0,0,9.47-3.67l3.32,4.77c-3.32,3.18-8.23,4.84-13.55,4.84-10,0-17.5-7-17.5-17.56C122.85,25.44,129.91,17.63,139.79,17.63Zm-9.4,14.8h18.8a8.92,8.92,0,0,0-9.4-8.85C133.57,23.58,130.73,28.35,130.39,32.43Z"/><path class="cls-1" d="M204.36,30.9c0-3.59-1.59-6-5.46-6-3.25,0-6.29,2.28-7.74,4.42V52.68H183.9V30.9c0-3.59-1.59-6-5.53-6-3.18,0-6.16,2.28-7.68,4.49v23.3h-7.26V19.29h7.26v4.56a14.45,14.45,0,0,1,10.86-5.39c5,0,8,2.49,9.12,6.15A14.17,14.17,0,0,1,202,18.46c6.15,0,9.61,3.32,9.61,10.09V52.68h-7.26Z"/><path class="cls-1" d="M219.64.74h7.26V23.09a13.21,13.21,0,0,1,10.71-5.46c8.58,0,14.8,6.78,14.8,17.56,0,11-6.29,17.49-14.8,17.49a13.4,13.4,0,0,1-10.71-5.39v4.56h-7.26Zm15.83,45.51c5.81,0,9.47-4.56,9.47-11.06s-3.66-11.13-9.47-11.13a10.88,10.88,0,0,0-8.57,4.56V41.83A10.76,10.76,0,0,0,235.47,46.25Z"/><path class="cls-1" d="M259.8,19.29h7.26V24.2a14.26,14.26,0,0,1,10.85-5.67v7.19a10.54,10.54,0,0,0-2.28-.21c-3,0-7.12,2.08-8.57,4.43V52.68H259.8Z"/><path class="cls-1" d="M285.65,9.26a4.54,4.54,0,0,1,4.5-4.49,4.5,4.5,0,0,1,0,9A4.54,4.54,0,0,1,285.65,9.26Zm.9,10h7.26V52.68h-7.26Z"/><path class="cls-1" d="M325.34,47.29a13.52,13.52,0,0,1-10.72,5.39c-8.57,0-14.86-6.5-14.86-17.49,0-10.78,6.22-17.56,14.86-17.56a13.42,13.42,0,0,1,10.72,5.46V.74h7.26V51.85h-7.26Zm0-18.74a11,11,0,0,0-8.64-4.49c-5.74,0-9.41,4.63-9.41,11.13S311,46.25,316.7,46.25a10.91,10.91,0,0,0,8.64-4.42Z"/><path class="cls-1" d="M345,55.08c2.7,3.12,6.15,4.29,10.58,4.29,4.77,0,9.88-2.21,9.88-9.06v-4a13.54,13.54,0,0,1-10.71,5.54c-8.51,0-14.8-6.16-14.8-17.15,0-10.79,6.22-17.15,14.8-17.15A13.3,13.3,0,0,1,365.43,23V18.37h7.26V50c0,12-8.92,15.28-17.14,15.28-5.67,0-9.89-1.25-14-5Zm20.46-26.61a10.83,10.83,0,0,0-8.57-4.5c-5.74,0-9.4,4.29-9.4,10.72s3.66,10.72,9.4,10.72a10.83,10.83,0,0,0,8.57-4.5Z"/><path class="cls-1" d="M397,17.63c10,0,16.45,7.67,16.45,18.18v1.73H387.62c.56,5.05,4.36,9.2,10.65,9.2a14.14,14.14,0,0,0,9.47-3.67l3.32,4.77c-3.32,3.18-8.23,4.84-13.55,4.84-10,0-17.49-7-17.49-17.56C380,25.44,387.07,17.63,397,17.63Zm-9.41,14.8h18.81a8.93,8.93,0,0,0-9.4-8.85C390.73,23.58,387.9,28.35,387.55,32.43Z"/></svg>